<svg width="309" height="220" viewBox="0 0 309 220" fill="none" xmlns="http://www.w3.org/2000/svg">
<path d="M11 22C17.0751 22 22 17.0751 22 11C22 4.92487 17.0751 0 11 0C4.92487 0 0 4.92487 0 11C0 17.0751 4.92487 22 11 22Z" fill="#D9D7D7" fill-opacity="0.4"/>
<path d="M11 55C17.0751 55 22 50.0751 22 44C22 37.9249 17.0751 33 11 33C4.92487 33 0 37.9249 0 44C0 50.0751 4.92487 55 11 55Z" fill="#D9D7D7" fill-opacity="0.4"/>
<path d="M11 88C17.0751 88 22 83.0751 22 77C22 70.9249 17.0751 66 11 66C4.92487 66 0 70.9249 0 77C0 83.0751 4.92487 88 11 88Z" fill="#D9D7D7" fill-opacity="0.4"/>
<path d="M11 121C17.0751 121 22 116.075 22 110C22 103.925 17.0751 99 11 99C4.92487 99 0 103.925 0 110C0 116.075 4.92487 121 11 121Z" fill="#D9D7D7" fill-opacity="0.4"/>
<path d="M11 154C17.0751 154 22 149.075 22 143C22 136.925 17.0751 132 11 132C4.92487 132 0 136.925 0 143C0 149.075 4.92487 154 11 154Z" fill="#D9D7D7" fill-opacity="0.4"/>
<path d="M11 187C17.0751 187 22 182.075 22 176C22 169.925 17.0751 165 11 165C4.92487 165 0 169.925 0 176C0 182.075 4.92487 187 11 187Z" fill="#D9D7D7" fill-opacity="0.4"/>
<path d="M11 220C17.0751 220 22 215.075 22 209C22 202.925 17.0751 198 11 198C4.92487 198 0 202.925 0 209C0 215.075 4.92487 220 11 220Z" fill="#D9D7D7" fill-opacity="0.4"/>
<path d="M52 22C58.0751 22 63 17.0751 63 11C63 4.92487 58.0751 0 52 0C45.9249 0 41 4.92487 41 11C41 17.0751 45.9249 22 52 22Z" fill="#D9D7D7" fill-opacity="0.4"/>
<path d="M52 55C58.0751 55 63 50.0751 63 44C63 37.9249 58.0751 33 52 33C45.9249 33 41 37.9249 41 44C41 50.0751 45.9249 55 52 55Z" fill="#D9D7D7" fill-opacity="0.4"/>
<path d="M52 88C58.0751 88 63 83.0751 63 77C63 70.9249 58.0751 66 52 66C45.9249 66 41 70.9249 41 77C41 83.0751 45.9249 88 52 88Z" fill="#D9D7D7" fill-opacity="0.4"/>
<path d="M52 121C58.0751 121 63 116.075 63 110C63 103.925 58.0751 99 52 99C45.9249 99 41 103.925 41 110C41 116.075 45.9249 121 52 121Z" fill="#D9D7D7" fill-opacity="0.4"/>
<path d="M52 154C58.0751 154 63 149.075 63 143C63 136.925 58.0751 132 52 132C45.9249 132 41 136.925 41 143C41 149.075 45.9249 154 52 154Z" fill="#D9D7D7" fill-opacity="0.4"/>
<path d="M52 187C58.0751 187 63 182.075 63 176C63 169.925 58.0751 165 52 165C45.9249 165 41 169.925 41 176C41 182.075 45.9249 187 52 187Z" fill="#D9D7D7" fill-opacity="0.4"/>
<path d="M52 220C58.0751 220 63 215.075 63 209C63 202.925 58.0751 198 52 198C45.9249 198 41 202.925 41 209C41 215.075 45.9249 220 52 220Z" fill="#D9D7D7" fill-opacity="0.4"/>
<path d="M93 22C99.0751 22 104 17.0751 104 11C104 4.92487 99.0751 0 93 0C86.9249 0 82 4.92487 82 11C82 17.0751 86.9249 22 93 22Z" fill="#D9D7D7" fill-opacity="0.4"/>
<path d="M93 55C99.0751 55 104 50.0751 104 44C104 37.9249 99.0751 33 93 33C86.9249 33 82 37.9249 82 44C82 50.0751 86.9249 55 93 55Z" fill="#D9D7D7" fill-opacity="0.4"/>
<path d="M93 88C99.0751 88 104 83.0751 104 77C104 70.9249 99.0751 66 93 66C86.9249 66 82 70.9249 82 77C82 83.0751 86.9249 88 93 88Z" fill="#D9D7D7" fill-opacity="0.4"/>
<path d="M93 121C99.0751 121 104 116.075 104 110C104 103.925 99.0751 99 93 99C86.9249 99 82 103.925 82 110C82 116.075 86.9249 121 93 121Z" fill="#D9D7D7" fill-opacity="0.4"/>
<path d="M93 154C99.0751 154 104 149.075 104 143C104 136.925 99.0751 132 93 132C86.9249 132 82 136.925 82 143C82 149.075 86.9249 154 93 154Z" fill="#D9D7D7" fill-opacity="0.4"/>
<path d="M93 187C99.0751 187 104 182.075 104 176C104 169.925 99.0751 165 93 165C86.9249 165 82 169.925 82 176C82 182.075 86.9249 187 93 187Z" fill="#D9D7D7" fill-opacity="0.4"/>
<path d="M93 220C99.0751 220 104 215.075 104 209C104 202.925 99.0751 198 93 198C86.9249 198 82 202.925 82 209C82 215.075 86.9249 220 93 220Z" fill="#D9D7D7" fill-opacity="0.4"/>
<path d="M134 22C140.075 22 145 17.0751 145 11C145 4.92487 140.075 0 134 0C127.925 0 123 4.92487 123 11C123 17.0751 127.925 22 134 22Z" fill="#D9D7D7" fill-opacity="0.4"/>
<path d="M134 55C140.075 55 145 50.0751 145 44C145 37.9249 140.075 33 134 33C127.925 33 123 37.9249 123 44C123 50.0751 127.925 55 134 55Z" fill="#D9D7D7" fill-opacity="0.4"/>
<path d="M134 88C140.075 88 145 83.0751 145 77C145 70.9249 140.075 66 134 66C127.925 66 123 70.9249 123 77C123 83.0751 127.925 88 134 88Z" fill="#D9D7D7" fill-opacity="0.4"/>
<path d="M134 121C140.075 121 145 116.075 145 110C145 103.925 140.075 99 134 99C127.925 99 123 103.925 123 110C123 116.075 127.925 121 134 121Z" fill="#D9D7D7" fill-opacity="0.4"/>
<path d="M134 154C140.075 154 145 149.075 145 143C145 136.925 140.075 132 134 132C127.925 132 123 136.925 123 143C123 149.075 127.925 154 134 154Z" fill="#D9D7D7" fill-opacity="0.4"/>
<path d="M134 187C140.075 187 145 182.075 145 176C145 169.925 140.075 165 134 165C127.925 165 123 169.925 123 176C123 182.075 127.925 187 134 187Z" fill="#D9D7D7" fill-opacity="0.4"/>
<path d="M134 220C140.075 220 145 215.075 145 209C145 202.925 140.075 198 134 198C127.925 198 123 202.925 123 209C123 215.075 127.925 220 134 220Z" fill="#D9D7D7" fill-opacity="0.4"/>
<path d="M175 22C181.075 22 186 17.0751 186 11C186 4.92487 181.075 0 175 0C168.925 0 164 4.92487 164 11C164 17.0751 168.925 22 175 22Z" fill="#D9D7D7" fill-opacity="0.4"/>
<path d="M175 55C181.075 55 186 50.0751 186 44C186 37.9249 181.075 33 175 33C168.925 33 164 37.9249 164 44C164 50.0751 168.925 55 175 55Z" fill="#D9D7D7" fill-opacity="0.4"/>
<path d="M175 88C181.075 88 186 83.0751 186 77C186 70.9249 181.075 66 175 66C168.925 66 164 70.9249 164 77C164 83.0751 168.925 88 175 88Z" fill="#D9D7D7" fill-opacity="0.4"/>
<path d="M175 121C181.075 121 186 116.075 186 110C186 103.925 181.075 99 175 99C168.925 99 164 103.925 164 110C164 116.075 168.925 121 175 121Z" fill="#D9D7D7" fill-opacity="0.4"/>
<path d="M175 154C181.075 154 186 149.075 186 143C186 136.925 181.075 132 175 132C168.925 132 164 136.925 164 143C164 149.075 168.925 154 175 154Z" fill="#D9D7D7" fill-opacity="0.4"/>
<path d="M175 187C181.075 187 186 182.075 186 176C186 169.925 181.075 165 175 165C168.925 165 164 169.925 164 176C164 182.075 168.925 187 175 187Z" fill="#D9D7D7" fill-opacity="0.4"/>
<path d="M175 220C181.075 220 186 215.075 186 209C186 202.925 181.075 198 175 198C168.925 198 164 202.925 164 209C164 215.075 168.925 220 175 220Z" fill="#D9D7D7" fill-opacity="0.4"/>
<path d="M216 22C222.075 22 227 17.0751 227 11C227 4.92487 222.075 0 216 0C209.925 0 205 4.92487 205 11C205 17.0751 209.925 22 216 22Z" fill="#D9D7D7" fill-opacity="0.4"/>
<path d="M216 55C222.075 55 227 50.0751 227 44C227 37.9249 222.075 33 216 33C209.925 33 205 37.9249 205 44C205 50.0751 209.925 55 216 55Z" fill="#D9D7D7" fill-opacity="0.4"/>
<path d="M216 88C222.075 88 227 83.0751 227 77C227 70.9249 222.075 66 216 66C209.925 66 205 70.9249 205 77C205 83.0751 209.925 88 216 88Z" fill="#D9D7D7" fill-opacity="0.4"/>
<path d="M216 121C222.075 121 227 116.075 227 110C227 103.925 222.075 99 216 99C209.925 99 205 103.925 205 110C205 116.075 209.925 121 216 121Z" fill="#D9D7D7" fill-opacity="0.4"/>
<path d="M216 154C222.075 154 227 149.075 227 143C227 136.925 222.075 132 216 132C209.925 132 205 136.925 205 143C205 149.075 209.925 154 216 154Z" fill="#D9D7D7" fill-opacity="0.4"/>
<path d="M216 187C222.075 187 227 182.075 227 176C227 169.925 222.075 165 216 165C209.925 165 205 169.925 205 176C205 182.075 209.925 187 216 187Z" fill="#D9D7D7" fill-opacity="0.4"/>
<path d="M216 220C222.075 220 227 215.075 227 209C227 202.925 222.075 198 216 198C209.925 198 205 202.925 205 209C205 215.075 209.925 220 216 220Z" fill="#D9D7D7" fill-opacity="0.4"/>
<path d="M257 22C263.075 22 268 17.0751 268 11C268 4.92487 263.075 0 257 0C250.925 0 246 4.92487 246 11C246 17.0751 250.925 22 257 22Z" fill="#D9D7D7" fill-opacity="0.4"/>
<path d="M257 55C263.075 55 268 50.0751 268 44C268 37.9249 263.075 33 257 33C250.925 33 246 37.9249 246 44C246 50.0751 250.925 55 257 55Z" fill="#D9D7D7" fill-opacity="0.4"/>
<path d="M257 88C263.075 88 268 83.0751 268 77C268 70.9249 263.075 66 257 66C250.925 66 246 70.9249 246 77C246 83.0751 250.925 88 257 88Z" fill="#D9D7D7" fill-opacity="0.4"/>
<path d="M257 121C263.075 121 268 116.075 268 110C268 103.925 263.075 99 257 99C250.925 99 246 103.925 246 110C246 116.075 250.925 121 257 121Z" fill="#D9D7D7" fill-opacity="0.4"/>
<path d="M257 154C263.075 154 268 149.075 268 143C268 136.925 263.075 132 257 132C250.925 132 246 136.925 246 143C246 149.075 250.925 154 257 154Z" fill="#D9D7D7" fill-opacity="0.4"/>
<path d="M257 187C263.075 187 268 182.075 268 176C268 169.925 263.075 165 257 165C250.925 165 246 169.925 246 176C246 182.075 250.925 187 257 187Z" fill="#D9D7D7" fill-opacity="0.4"/>
<path d="M257 220C263.075 220 268 215.075 268 209C268 202.925 263.075 198 257 198C250.925 198 246 202.925 246 209C246 215.075 250.925 220 257 220Z" fill="#D9D7D7" fill-opacity="0.4"/>
<path d="M298 22C304.075 22 309 17.0751 309 11C309 4.92487 304.075 0 298 0C291.925 0 287 4.92487 287 11C287 17.0751 291.925 22 298 22Z" fill="#D9D7D7" fill-opacity="0.4"/>
<path d="M298 55C304.075 55 309 50.0751 309 44C309 37.9249 304.075 33 298 33C291.925 33 287 37.9249 287 44C287 50.0751 291.925 55 298 55Z" fill="#D9D7D7" fill-opacity="0.4"/>
<path d="M298 88C304.075 88 309 83.0751 309 77C309 70.9249 304.075 66 298 66C291.925 66 287 70.9249 287 77C287 83.0751 291.925 88 298 88Z" fill="#D9D7D7" fill-opacity="0.4"/>
<path d="M298 121C304.075 121 309 116.075 309 110C309 103.925 304.075 99 298 99C291.925 99 287 103.925 287 110C287 116.075 291.925 121 298 121Z" fill="#D9D7D7" fill-opacity="0.4"/>
<path d="M298 154C304.075 154 309 149.075 309 143C309 136.925 304.075 132 298 132C291.925 132 287 136.925 287 143C287 149.075 291.925 154 298 154Z" fill="#D9D7D7" fill-opacity="0.4"/>
<path d="M298 187C304.075 187 309 182.075 309 176C309 169.925 304.075 165 298 165C291.925 165 287 169.925 287 176C287 182.075 291.925 187 298 187Z" fill="#D9D7D7" fill-opacity="0.4"/>
<path d="M298 220C304.075 220 309 215.075 309 209C309 202.925 304.075 198 298 198C291.925 198 287 202.925 287 209C287 215.075 291.925 220 298 220Z" fill="#D9D7D7" fill-opacity="0.4"/>
</svg>
